# xmcd
#
# Track frame offsets:
#	150
#	15308
#	30379
#	45448
#	60724
#	76327
#	92398
#	113097
#	129130
#	146907
#	164957
#	180777
#	197817
#	212208
#	228968
#	245018
#	260905
#	278279
#	298417
#	320656
#
# Disc length: 4500 seconds
#
# Revision: 3
# Processed by: cddbd v1.5.1PL2 Copyright (c) Steve Scherf et al.
# Submitted via: audiograbber 1.83.01
#
DISCID=19119214
DTITLE=Discothekenhits - Discothekenhits CD 1
DYEAR=2001
DGENRE=Pop
TTITLE0=Rocco - Everybody
TTITLE1=Aquagen - Hard To Say I'm Sorry
TTITLE2=Starplash - Free
TTITLE3=Sylver - Forgiven
TTITLE4=Interactive - Forever Young
TTITLE5=Mark'Oh - Tears Don't Lie
TTITLE6=Kai Tracid - Life Is Too Short
TTITLE7=Essential DJ-Team - Ong-Diggi-Dong ?
TTITLE8=DJ Tomcraft - Overdose
TTITLE9=Gigi D'Agostino - L'Amour Toujours
TTITLE10=Scooter - Aiii Shot The DJ
TTITLE11=Pulsedriver - Din Daa Daa (Original 2001 Version)
TTITLE12=Topmodelz - L'Esperanza
TTITLE13=Prezioso feat Marvin - Let's Talk About A Man
TTITLE14=Alcazar - Sexual Guarantee
TTITLE15=Costanzo - L'Italiano
TTITLE16=Hermes House Band - Que Sera Sera
TTITLE17=Mirco Nontschew - Wer Hat Den Groessten
TTITLE18=Juergen Drews - Hey! Amigo Charly Brown (engl. Version)
TTITLE19=John Paul Young vs Milk and Sugar - Love Is In The Air
EXTD=YEAR: 2001 ID3G: 4
EXTT0=
EXTT1=
EXTT2=
EXTT3=
EXTT4=
EXTT5=
EXTT6=
EXTT7=
EXTT8=
EXTT9=
EXTT10=
EXTT11=
EXTT12=
EXTT13=
EXTT14=
EXTT15=
EXTT16=
EXTT17=
EXTT18=
EXTT19=
PLAYORDER=
